<?xml version="1.0" encoding="UTF-8" standalone="no"?>
<!-- Created with Inkscape (http://www.inkscape.org/) -->

<svg
   xmlns:dc="http://purl.org/dc/elements/1.1/"
   xmlns:cc="http://creativecommons.org/ns#"
   xmlns:rdf="http://www.w3.org/1999/02/22-rdf-syntax-ns#"
   xmlns:svg="http://www.w3.org/2000/svg"
   xmlns="http://www.w3.org/2000/svg"
   xmlns:sodipodi="http://sodipodi.sourceforge.net/DTD/sodipodi-0.dtd"
   xmlns:inkscape="http://www.inkscape.org/namespaces/inkscape"
   width="123.74501mm"
   height="51.031845mm"
   viewBox="0 0 123.74501 51.031845"
   version="1.1"
   id="svg8"
   inkscape:version="0.92.4 (5da689c313, 2019-01-14)"
   sodipodi:docname="duck_it_logo.svg"
   inkscape:export-filename="D:\WORKSPACE_ECLIPSE\Visual Workspace\web-shop\web-shop\client\public\images\duck_it_logo.svg.png"
   inkscape:export-xdpi="96"
   inkscape:export-ydpi="96">
  <defs
     id="defs2" />
  <sodipodi:namedview
     id="base"
     pagecolor="#ffffff"
     bordercolor="#666666"
     borderopacity="1.0"
     inkscape:pageopacity="0.0"
     inkscape:pageshadow="2"
     inkscape:zoom="1.4142136"
     inkscape:cx="211.26662"
     inkscape:cy="64.967695"
     inkscape:document-units="mm"
     inkscape:current-layer="layer1"
     showgrid="false"
     fit-margin-top="0"
     fit-margin-left="0"
     fit-margin-right="0"
     fit-margin-bottom="0"
     inkscape:window-width="1680"
     inkscape:window-height="1028"
     inkscape:window-x="-8"
     inkscape:window-y="-8"
     inkscape:window-maximized="1" />
  <metadata
     id="metadata5">
    <rdf:RDF>
      <cc:Work
         rdf:about="">
        <dc:format>image/svg+xml</dc:format>
        <dc:type
           rdf:resource="http://purl.org/dc/dcmitype/StillImage" />
        <dc:title />
      </cc:Work>
    </rdf:RDF>
  </metadata>
  <g
     inkscape:label="Layer 1"
     inkscape:groupmode="layer"
     id="layer1"
     transform="translate(-76.497377,-112.7341)">
    <g
       id="g5082">
      <g
         style="fill:#ffee00;fill-opacity:0.95979901;stroke:#ffee00;stroke-width:1.00157475;stroke-miterlimit:4;stroke-dasharray:none;stroke-opacity:0.89447237"
         transform="matrix(0.26458333,0,0,0.26458333,76.629932,110.55829)"
         id="g3771">
        <g
           style="fill:#ffee00;fill-opacity:0.95979901;stroke:#ffee00;stroke-width:1.00157475;stroke-miterlimit:4;stroke-dasharray:none;stroke-opacity:0.89447237"
           id="g3715">
          <path
             style="fill:#ffee00;fill-opacity:0.95979901;stroke:#ffee00;stroke-width:1.00157475;stroke-miterlimit:4;stroke-dasharray:none;stroke-opacity:0.89447237"
             inkscape:connector-curvature="0"
             d="M 105.572,101.811 C 115.461,95.443 132.989,85.347 133.678,59.645 134.214,39.367 123.707,10.139 84.523,8.767 53.041,7.659 39.9,28.251 36.071,46.739 l -0.928,-0.126 c -1.932,0 -3.438,1.28 -5.34,2.889 -2.084,1.784 -4.683,3.979 -7.792,4.308 C 18.438,54.171 13.9,52.604 10.313,51.361 6.12,49.93 3.689,49.314 2.048,50.602 0.545,51.765 -0.13,53.864 0.02,56.828 c 0.331,6.326 4.971,18.917 16.016,25.778 7.67,4.765 16.248,5.482 20.681,5.482 0.006,0 0.006,0 0.006,0 2.37,0 4.945,-0.239 7.388,-0.726 2.741,4.218 5.228,7.476 6.037,9.752 2.054,5.851 -27.848,25.087 -27.848,55.01 0,29.916 22.013,48.475 56.727,48.475 h 55.004 c 30.593,0 70.814,-29.908 75.291,-92.48 -28.541,24.072 -42.294,-9.969 -103.75,-6.308 z M 18.941,77.945 C 8.775,71.617 4.992,58.922 5.294,55.525 c 0.897,0.24 2.194,0.689 3.228,1.042 4.105,1.415 9.416,3.228 14.068,2.707 4.799,-0.499 8.253,-3.437 10.778,-5.574 0.607,-0.509 1.393,-1.176 1.872,-1.491 0.87,0.315 0.962,0.693 1.176,3.14 0.196,2.26 0.473,5.37 2.362,9.006 1.437,2.761 3.581,5.705 5.646,8.542 1.701,2.336 4.278,5.871 4.535,6.404 -0.445,1.184 -4.907,3.282 -12.229,3.282 -6.553,0.008 -13.04,-1.679 -17.789,-4.638 z M 56.86,49.368 c 0,-4.938 4.001,-8.943 8.931,-8.943 4.941,0 8.942,4.005 8.942,8.943 0,4.931 -4.001,8.942 -8.942,8.942 -4.937,10e-4 -8.931,-4.011 -8.931,-8.942 z m 92.299,106.03 -20.63,11.169 13.408,9.293 c 0,0 -49.854,15.813 -72.198,-6.885 -11.006,-11.16 -13.06,-28.533 4.124,-38.84 17.184,-10.312 84.609,3.943 84.609,3.943 L 134.295,147.8 Z"
             id="path3713" />
        </g>
        <g
           style="fill:#ffee00;fill-opacity:0.95979901;stroke:#ffee00;stroke-width:1.00157475;stroke-miterlimit:4;stroke-dasharray:none;stroke-opacity:0.89447237"
           id="g3717" />
        <g
           style="fill:#ffee00;fill-opacity:0.95979901;stroke:#ffee00;stroke-width:1.00157475;stroke-miterlimit:4;stroke-dasharray:none;stroke-opacity:0.89447237"
           id="g3719" />
        <g
           style="fill:#ffee00;fill-opacity:0.95979901;stroke:#ffee00;stroke-width:1.00157475;stroke-miterlimit:4;stroke-dasharray:none;stroke-opacity:0.89447237"
           id="g3721" />
        <g
           style="fill:#ffee00;fill-opacity:0.95979901;stroke:#ffee00;stroke-width:1.00157475;stroke-miterlimit:4;stroke-dasharray:none;stroke-opacity:0.89447237"
           id="g3723" />
        <g
           style="fill:#ffee00;fill-opacity:0.95979901;stroke:#ffee00;stroke-width:1.00157475;stroke-miterlimit:4;stroke-dasharray:none;stroke-opacity:0.89447237"
           id="g3725" />
        <g
           style="fill:#ffee00;fill-opacity:0.95979901;stroke:#ffee00;stroke-width:1.00157475;stroke-miterlimit:4;stroke-dasharray:none;stroke-opacity:0.89447237"
           id="g3727" />
        <g
           style="fill:#ffee00;fill-opacity:0.95979901;stroke:#ffee00;stroke-width:1.00157475;stroke-miterlimit:4;stroke-dasharray:none;stroke-opacity:0.89447237"
           id="g3729" />
        <g
           style="fill:#ffee00;fill-opacity:0.95979901;stroke:#ffee00;stroke-width:1.00157475;stroke-miterlimit:4;stroke-dasharray:none;stroke-opacity:0.89447237"
           id="g3731" />
        <g
           style="fill:#ffee00;fill-opacity:0.95979901;stroke:#ffee00;stroke-width:1.00157475;stroke-miterlimit:4;stroke-dasharray:none;stroke-opacity:0.89447237"
           id="g3733" />
        <g
           style="fill:#ffee00;fill-opacity:0.95979901;stroke:#ffee00;stroke-width:1.00157475;stroke-miterlimit:4;stroke-dasharray:none;stroke-opacity:0.89447237"
           id="g3735" />
        <g
           style="fill:#ffee00;fill-opacity:0.95979901;stroke:#ffee00;stroke-width:1.00157475;stroke-miterlimit:4;stroke-dasharray:none;stroke-opacity:0.89447237"
           id="g3737" />
        <g
           style="fill:#ffee00;fill-opacity:0.95979901;stroke:#ffee00;stroke-width:1.00157475;stroke-miterlimit:4;stroke-dasharray:none;stroke-opacity:0.89447237"
           id="g3739" />
        <g
           style="fill:#ffee00;fill-opacity:0.95979901;stroke:#ffee00;stroke-width:1.00157475;stroke-miterlimit:4;stroke-dasharray:none;stroke-opacity:0.89447237"
           id="g3741" />
        <g
           style="fill:#ffee00;fill-opacity:0.95979901;stroke:#ffee00;stroke-width:1.00157475;stroke-miterlimit:4;stroke-dasharray:none;stroke-opacity:0.89447237"
           id="g3743" />
        <g
           style="fill:#ffee00;fill-opacity:0.95979901;stroke:#ffee00;stroke-width:1.00157475;stroke-miterlimit:4;stroke-dasharray:none;stroke-opacity:0.89447237"
           id="g3745" />
      </g>
      <path
         transform="scale(0.26458333)"
         inkscape:connector-curvature="0"
         id="path4578"
         d="m 322.82783,499.5472 c -10.19821,-0.75259 -18.20805,-5.65646 -23.31279,-14.27281 -1.63812,-2.765 -3.41303,-7.26697 -3.70508,-9.39777 l -0.21587,-1.57488 3.70616,1.19801 c 11.34801,3.66824 16.43519,3.03079 23.46192,-2.93992 1.04425,-0.8873 2.02305,-1.47124 2.17512,-1.29762 0.15207,0.17361 0.4507,1.68172 0.66362,3.35137 0.71107,5.57606 1.91904,8.09939 7.82077,16.33699 2.07665,2.89858 3.93196,5.46466 4.1229,5.70239 0.85236,1.06124 -4.37666,2.78993 -9.18104,3.03521 -1.17857,0.0602 -3.66964,-0.003 -5.53571,-0.14097 z"
         style="fill:#ff6600;fill-opacity:0.95979901;stroke:#ffee00;stroke-width:0.35770527;stroke-miterlimit:4;stroke-dasharray:none;stroke-opacity:0.89447237" />
      <path
         transform="scale(0.26458333)"
         inkscape:connector-curvature="0"
         id="path4580"
         d="m 351.90243,474.46153 c -5.78741,-2.92371 -6.21486,-10.23329 -0.83167,-14.22196 2.23928,-1.6592 6.67828,-1.48422 9.09418,0.35847 1.02039,0.77829 2.221,2.12235 2.66803,2.98681 1.06676,2.06288 0.7308,6.49828 -0.63416,8.37225 -1.18474,1.62654 -4.9168,3.64085 -6.74567,3.64085 -0.71565,0 -2.31347,-0.51139 -3.55071,-1.13642 z"
         style="fill:#000000;fill-opacity:0.95979901;stroke:#ffee00;stroke-width:0.50587165;stroke-miterlimit:4;stroke-dasharray:none;stroke-opacity:0.89447237" />
      <path
         transform="scale(0.26458333)"
         inkscape:connector-curvature="0"
         id="path4582"
         d="m 384.24249,597.53541 c -5.84253,-0.93161 -13.58418,-3.50427 -17.51564,-5.8207 -4.62146,-2.72298 -10.21609,-8.62415 -12.40169,-13.0812 -4.66526,-9.51377 -3.35421,-18.33978 3.78473,-25.47871 3.31776,-3.31776 7.49719,-5.77013 11.50562,-6.75117 11.61472,-2.84264 35.87585,-1.37219 66.7761,4.04725 4.93081,0.86479 8.96511,1.72795 8.96511,1.91814 0,0.19019 -5.12957,3.25511 -11.39904,6.81094 l -11.39905,6.46514 7.34391,3.81499 c 4.03915,2.09825 7.29362,3.85158 7.23216,3.8963 -0.0615,0.0447 -4.43014,2.41277 -9.70819,5.26234 -5.27805,2.84958 -9.77129,5.34127 -9.98499,5.53709 -0.21369,0.19582 2.35078,2.24927 5.69883,4.56322 3.34805,2.31394 6.18442,4.36421 6.30304,4.55615 0.27397,0.44329 -10.0393,2.82144 -16.66409,3.84259 -7.42244,1.1441 -22.58881,1.36605 -28.53681,0.41763 z"
         style="fill:#000000;fill-opacity:0.95979901;stroke:#ffee00;stroke-width:0.50587165;stroke-miterlimit:4;stroke-dasharray:none;stroke-opacity:0.89447237" />
      <g
         id="text4586"
         style="font-style:normal;font-weight:normal;font-size:34.84682846px;line-height:1.25;font-family:sans-serif;letter-spacing:0px;word-spacing:0px;fill:#ff6600;fill-opacity:0.96078431;stroke:none;stroke-width:0.8711707"
         aria-label="duck ">
        <path
           id="path5042"
           style="fill:#ffee00;fill-opacity:1"
           d="m 135.99355,113.09786 v 18.58044 h 0.59553 q 1.2421,0 1.78658,0.49343 0.54448,0.47642 0.54448,1.25912 0,0.76567 -0.54448,1.25911 -0.52747,0.47642 -1.78658,0.47642 h -4.08361 v -0.85075 q -1.19106,0.69762 -2.50122,1.05493 -1.29314,0.35732 -2.68838,0.35732 -3.93047,0 -6.3296,-2.263 -2.39912,-2.28002 -2.39912,-5.66602 0,-3.53913 2.51823,-6.04034 2.51823,-2.50121 6.14243,-2.50121 1.36121,0 2.67137,0.42537 1.31016,0.40836 2.58629,1.2421 v -4.33884 h -0.59553 q -1.25912,0 -1.8036,-0.47642 -0.52746,-0.49343 -0.52746,-1.25911 0,-0.78269 0.52746,-1.25912 0.54448,-0.49343 1.8036,-0.49343 z m -3.48808,14.80309 q 0,-2.16091 -1.51434,-3.65823 -1.51434,-1.49733 -3.70929,-1.49733 -2.17792,0 -3.69226,1.49733 -1.51434,1.49732 -1.51434,3.60719 0,1.9227 1.3612,3.1648 1.36121,1.22508 3.8454,1.22508 2.46719,0 3.84541,-1.22508 1.37822,-1.2421 1.37822,-3.11376 z"
           inkscape:connector-curvature="0" />
        <path
           id="path5044"
           style="font-style:normal;font-variant:normal;font-weight:bold;font-stretch:normal;line-height:133.44999695;font-family:'Courier New';-inkscape-font-specification:'Courier New Bold';fill:#ff6600;fill-opacity:0.96078431;stroke-width:0.8711707"
           d="m 156.29251,119.71671 v 11.96159 q 1.10598,0 1.63345,0.49343 0.52746,0.49344 0.52746,1.25912 0,0.76567 -0.54448,1.25911 -0.52747,0.47642 -1.78658,0.47642 h -3.31794 v -0.79971 q -1.49732,0.68061 -2.85852,1.02091 -1.36121,0.3403 -2.58629,0.3403 -1.71852,0 -2.97764,-0.71463 -1.25911,-0.73165 -1.99076,-2.00778 -0.52746,-0.91881 -0.52746,-2.29703 v -7.50364 h -0.59553 q -1.25912,0 -1.8036,-0.47642 -0.52746,-0.49344 -0.52746,-1.27613 0,-0.76568 0.52746,-1.2421 0.54448,-0.49344 1.8036,-0.49344 h 4.08361 v 10.37919 q 0,1.10597 0.52747,1.63344 0.54448,0.51045 1.65046,0.51045 1.05493,0 2.263,-0.40836 1.22508,-0.42537 3.01166,-1.51434 v -7.11229 h -1.25911 q -1.25911,0 -1.8036,-0.47642 -0.52746,-0.49344 -0.52746,-1.27613 0,-0.76568 0.52746,-1.2421 0.54449,-0.49344 1.8036,-0.49344 z"
           inkscape:connector-curvature="0" />
        <path
           id="path5046"
           style="fill:#ffee00;fill-opacity:1"
           d="m 175.21325,120.34627 q 0.62956,-0.59553 1.29314,-0.59553 0.74867,0 1.22509,0.54449 0.49343,0.52746 0.49343,1.76956 v 2.24599 q 0,1.25911 -0.49343,1.78658 -0.47642,0.52747 -1.25912,0.52747 -0.71463,0 -1.20807,-0.40837 -0.35731,-0.30627 -0.56149,-1.24209 -0.20418,-0.95285 -0.98688,-1.41225 -1.37821,-0.81673 -3.52211,-0.81673 -2.46718,0 -3.96451,1.44628 -1.48031,1.44628 -1.48031,3.65824 0,2.04181 1.42927,3.23286 1.42926,1.17404 4.7472,1.17404 2.17792,0 3.55614,-0.44239 0.81672,-0.27224 1.54837,-0.91882 0.73165,-0.66358 1.32718,-0.66358 0.71463,0 1.22508,0.52746 0.52747,0.52747 0.52747,1.2421 0,1.15703 -1.5824,2.19494 -2.34808,1.54837 -6.87408,1.54837 -4.0666,0 -6.3296,-1.68449 -3.06271,-2.263 -3.06271,-6.19348 0,-3.72629 2.48419,-6.15945 2.4842,-2.45016 6.48274,-2.45016 1.44628,0 2.68838,0.27224 1.2421,0.27224 2.29703,0.81672 z"
           inkscape:connector-curvature="0" />
        <path
           id="path5048"
           style="fill:#000000"
           d="m 187.80439,129.36425 v 5.80213 h -4.08361 q -1.25912,0 -1.8036,-0.47642 -0.52747,-0.49344 -0.52747,-1.27613 0,-0.76568 0.54449,-1.2421 0.54448,-0.49343 1.78658,-0.49343 h 0.59552 v -15.09236 h -0.59552 q -1.25912,0 -1.8036,-0.47642 -0.52747,-0.49343 -0.52747,-1.27613 0,-0.76567 0.52747,-1.2421 0.54448,-0.49343 1.8036,-0.49343 h 4.08361 v 11.7574 l 2.72241,-2.19494 q -0.42538,-0.73165 -0.42538,-1.19106 0,-0.78269 0.52747,-1.25911 0.52746,-0.49344 1.78658,-0.49344 h 3.98152 q 1.25911,0 1.78658,0.49344 0.54448,0.47642 0.54448,1.25911 0,0.76568 -0.54448,1.25912 -0.52747,0.47642 -1.78658,0.47642 h -0.96986 l -4.23675,3.43704 5.70005,5.03646 h 1.0209 q 1.25911,0 1.78658,0.49343 0.54448,0.47642 0.54448,1.25912 0,0.76567 -0.54448,1.25911 -0.52747,0.47642 -1.78658,0.47642 h -4.01555 q -1.25912,0 -1.8036,-0.47642 -0.52746,-0.49344 -0.52746,-1.27613 0,-0.66359 0.57851,-1.31016 l -3.69227,-3.26689 z"
           inkscape:connector-curvature="0" />
      </g>
      <g
         id="text4586-1"
         style="font-style:normal;font-weight:normal;font-size:34.84682846px;line-height:1.25;font-family:sans-serif;letter-spacing:0px;word-spacing:0px;fill:#ff6600;fill-opacity:0.96078431;stroke:none;stroke-width:0.8711707"
         aria-label="I.T.">
        <path
           id="path5033"
           style="fill:#ffee00;fill-opacity:1"
           d="m 146.39013,144.94894 v 13.64607 h 3.52212 q 1.25911,0 1.78658,0.49344 0.54448,0.47642 0.54448,1.25911 0,0.76568 -0.54448,1.25912 -0.52747,0.47642 -1.78658,0.47642 h -10.53232 q -1.25911,0 -1.8036,-0.47642 -0.52746,-0.49344 -0.52746,-1.27613 0,-0.76568 0.52746,-1.2421 0.54449,-0.49344 1.8036,-0.49344 h 3.52212 v -13.64607 h -3.52212 q -1.25911,0 -1.8036,-0.47642 -0.52746,-0.49344 -0.52746,-1.27613 0,-0.78269 0.52746,-1.25911 0.54449,-0.49344 1.8036,-0.49344 l 10.53232,0.017 q 1.25911,0 1.78658,0.47642 0.54448,0.47642 0.54448,1.25911 0,0.78269 -0.54448,1.27613 -0.52747,0.47642 -1.78658,0.47642 z"
           inkscape:connector-curvature="0" />
        <path
           id="path5035"
           style="fill:#000000"
           d="m 164.39872,160.33055 q 0,0.98687 -0.69762,1.65046 -0.69761,0.66359 -1.9227,0.66359 -1.22508,0 -1.9227,-0.66359 -0.69762,-0.66359 -0.69762,-1.65046 0,-0.98687 0.69762,-1.65046 0.69762,-0.66359 1.9227,-0.66359 1.22509,0 1.9227,0.66359 0.69762,0.66359 0.69762,1.65046 z"
           inkscape:connector-curvature="0" />
        <path
           id="path5037"
           style="font-style:normal;font-variant:normal;font-weight:bold;font-stretch:normal;line-height:133.44999695;font-family:'Courier New';-inkscape-font-specification:'Courier New Bold';letter-spacing:-3.80470872px;fill:#ff6600;fill-opacity:0.96078431;stroke:#ffee00;stroke-width:0.8711707;stroke-opacity:0"
           d="m 180.51864,144.94894 v 13.64607 h 2.34808 q 1.25911,0 1.78658,0.49344 0.54448,0.47642 0.54448,1.25911 0,0.76568 -0.54448,1.25912 -0.52747,0.47642 -1.78658,0.47642 h -8.16723 q -1.25911,0 -1.80359,-0.47642 -0.52747,-0.49344 -0.52747,-1.27613 0,-0.76568 0.52747,-1.2421 0.54448,-0.49344 1.80359,-0.49344 h 2.33106 v -13.64607 h -3.77734 v 3.30092 q 0,1.25912 -0.49343,1.8036 -0.47643,0.52746 -1.25912,0.52746 -0.76568,0 -1.25911,-0.52746 -0.47642,-0.54448 -0.47642,-1.8036 v -6.80602 l 18.06998,0.017 v 6.789 q 0,1.25912 -0.49343,1.8036 -0.47643,0.52746 -1.25912,0.52746 -0.76568,0 -1.25911,-0.52746 -0.47642,-0.54448 -0.47642,-1.8036 v -3.30092 z"
           inkscape:connector-curvature="0" />
        <path
           id="path5039"
           style="fill:#ffee00;fill-opacity:1"
           d="m 198.57827,160.33055 q 0,0.98687 -0.69761,1.65046 -0.69762,0.66359 -1.92271,0.66359 -1.22508,0 -1.9227,-0.66359 -0.69761,-0.66359 -0.69761,-1.65046 0,-0.98687 0.69761,-1.65046 0.69762,-0.66359 1.9227,-0.66359 1.22509,0 1.92271,0.66359 0.69761,0.66359 0.69761,1.65046 z"
           inkscape:connector-curvature="0" />
      </g>
    </g>
  </g>
</svg>
